<svg preserveAspectRatio="none" overflow="visible" style="display: block;" width="24" height="24" viewBox="0 0 24 24" fill="none" xmlns="http://www.w3.org/2000/svg">
<g id="SVG">
<path id="Vector" d="M18.364 5.636L14.828 9.172M14.828 14.828L18.364 18.364M9.172 9.172L5.636 5.636M9.172 14.828L5.636 18.364M21 12C21 16.9672 16.9672 21 12 21C7.03276 21 3 16.9672 3 12C3 7.03276 7.03276 3 12 3C16.9672 3 21 7.03276 21 12L18.364 5.636M13.364 5.636C13.364 7.84366 11.5717 9.636 9.364 9.636C7.15634 9.636 5.364 7.84366 5.364 5.636C5.364 3.42834 7.15634 1.636 9.364 1.636C11.5717 1.636 13.364 3.42834 13.364 5.636V5.636" stroke="#D97706" stroke-width="2" stroke-linecap="round" stroke-linejoin="round"/>
</g>
</svg>
